<svg fill="#E7EBEC" enable-background="new 0 0 512 512" height="512" viewBox="0 0 512 512" width="512" xmlns="http://www.w3.org/2000/svg"><g><g>
<path fill="#81848D" d="m437.02 74.981c-48.352-48.352-112.64-74.981-181.02-74.981-28.465 0-56.426 4.641-83.106 13.794-3.913 1.342-5.998 5.603-4.655 9.516 1.343 3.914 5.604 6 9.516 4.654 25.112-8.615 51.438-12.982 78.245-12.982 64.378 0 124.904 25.07 170.426 70.592 45.523 45.523 70.593 106.047 70.593 170.426s-25.07 124.904-70.593 170.427c-45.522 45.522-106.048 70.592-170.426 70.592s-124.904-25.07-170.426-70.593c-45.522-45.522-70.592-106.048-70.592-170.426 0-45.266 12.617-89.378 36.488-127.567 23.227-37.16 56.101-67.32 95.066-87.219 3.684-1.882 5.146-6.394 3.264-10.078-1.881-3.685-6.393-5.144-10.078-3.265-41.381 21.133-76.292 53.161-100.956 92.62-25.361 40.574-38.766 87.432-38.766 135.509 0 68.38 26.629 132.668 74.981 181.02s112.639 74.98 181.019 74.98 132.668-26.629 181.02-74.981 74.98-112.639 74.98-181.019-26.628-132.667-74.98-181.019z"/>
<path fill="#81848D" d="m104.741 278.536c-4.87 5.883-6.845 13.56-5.419 21.062 6.505 34.209 23.692 63.12 51.085 85.931 29.482 24.549 66.982 38.07 105.593 38.07s76.112-13.521 105.593-38.07c27.392-22.81 44.58-51.722 51.085-85.931 1.427-7.503-.549-15.179-5.419-21.062-4.869-5.883-12.039-9.255-19.672-9.255h-263.174c-7.634-.001-14.804 3.372-19.672 9.255zm290.978 9.552c2.015 2.434 2.831 5.608 2.241 8.71-4.813 25.314-16.182 47.405-33.831 65.888-3.589-8.782-9.052-16.696-16.169-23.299-3.032-2.814-7.772-2.635-10.586.396-2.814 3.033-2.636 7.773.396 10.587 6.956 6.454 11.881 14.516 14.397 23.507-.055.046-.106.094-.161.139-26.795 22.313-60.891 34.601-96.006 34.601-27.922 0-55.195-7.777-78.669-22.178-4.667-2.863-9.185-5.994-13.496-9.344-1.296-1.007-2.58-2.031-3.844-3.083-.009-.008-.018-.015-.028-.023-.044-.036-.085-.075-.128-.111 6.097-21.726 26.076-37.088 49.021-37.088 13.711 0 26.57 5.375 36.21 15.135 2.911 2.948 6.795 4.572 10.935 4.572s8.024-1.624 10.935-4.572c9.64-9.76 22.499-15.135 36.21-15.135 2.554 0 5.117.19 7.617.564 4.097.618 7.905-2.206 8.518-6.299.612-4.092-2.208-7.904-6.299-8.517-3.232-.484-6.541-.73-9.836-.73-17.747 0-34.393 6.956-46.869 19.588-.035.035-.116.118-.277.118-.16 0-.241-.083-.276-.118-12.476-12.632-29.122-19.588-46.869-19.588-27.114 0-51.014 16.59-60.975 40.887-17.654-18.485-29.026-40.579-33.84-65.897-.59-3.102.227-6.276 2.241-8.71 2.013-2.432 4.976-3.826 8.131-3.826h263.175c3.155 0 6.119 1.395 8.132 3.826z"/>
<path fill="#81848D" d="m172.434 156.794c-15.671 0-28.421 12.75-28.421 28.421v27.556c0 4.138 3.354 7.491 7.491 7.491s7.491-3.353 7.491-7.491v-27.556c0-7.411 6.029-13.44 13.439-13.44 7.411 0 13.44 6.029 13.44 13.44v27.556c0 4.138 3.354 7.491 7.491 7.491s7.491-3.353 7.491-7.491v-27.556c-.001-15.671-12.751-28.421-28.422-28.421z"/>
<path fill="#81848D" d="m352.477 220.262c4.137 0 7.491-3.353 7.491-7.491v-27.556c0-15.671-12.75-28.421-28.421-28.421-15.672 0-28.421 12.75-28.421 28.421v27.556c0 4.138 3.354 7.491 7.491 7.491s7.491-3.353 7.491-7.491v-27.556c0-7.411 6.029-13.44 13.44-13.44 7.41 0 13.439 6.029 13.439 13.44v27.556c-.001 4.138 3.353 7.491 7.49 7.491z"/></g></g></svg>