<?xml version="1.0" encoding="iso-8859-1"?>
<!-- Generator: Adobe Illustrator 19.0.0, SVG Export Plug-In . SVG Version: 6.00 Build 0)  -->
<svg version="1.1" id="Capa_1" xmlns="http://www.w3.org/2000/svg" xmlns:xlink="http://www.w3.org/1999/xlink" x="0px" y="0px"
	 viewBox="0 0 512 512" style="enable-background:new 0 0 512 512;" xml:space="preserve">
<g>
	<g>
		<path fill="#414141" d="M421,242v-77C421,74.019,346.981,0,256,0S91,74.019,91,165v77H61v270h390V242H421z M271,389.237V452h-30v-62.763
			c-17.422-6.213-30-22.707-30-42.237c0-24.814,20.186-45,45-45c24.814,0,45,20.186,45,45C301,366.53,288.422,383.024,271,389.237z
			 M331,242H181v-77c0-41.353,33.647-75,75-75c41.353,0,75,33.647,75,75V242z"/>
	</g>
</g>
<g>
</g>
<g>
</g>
<g>
</g>
<g>
</g>
<g>
</g>
<g>
</g>
<g>
</g>
<g>
</g>
<g>
</g>
<g>
</g>
<g>
</g>
<g>
</g>
<g>
</g>
<g>
</g>
<g>
</g>
</svg>
