<svg id="Capa_1" enable-background="new 0 0 512 512" height="512" viewBox="0 0 512 512" width="512" xmlns="http://www.w3.org/2000/svg"><g><g><path d="m494.476 124.806c-10.643-1.002-20.104 6.786-21.124 17.434-1.709 17.865-14.15 32.469-31.028 37.217-1.186.334-2.45-.07-3.216-1.035-29.238-36.852-74.409-60.487-125.106-60.487h-23.742c-1.038 0-2.011-.501-2.614-1.346l-24.7-34.607c-6.83-9.57-21.051-9.57-27.881 0l-24.7 34.607c-.603.844-1.576 1.346-2.614 1.346h-32.695c-10.054 0-19.889.936-29.427 2.714-1.23.229-2.479-.263-3.206-1.281l-26.54-37.188c-6.87-9.625-21.196-9.557-27.974.133l-34.702 64.805c-4.746 8.864-9.097 17.935-13.038 27.185-9.145 21.462-16.053 43.81-20.616 66.69l-.839 4.207c-2.152 10.452-3.285 21.276-3.285 32.365 0 88.161 71.468 159.629 159.629 159.629h106.224c2.38 0 4.717-.422 6.91-1.225l84.558-100.845 97.102-82.109c.768-2.967.858-6.113.194-9.201-2.005-9.316-4.827-18.328-8.38-26.961-.622-1.512.095-3.245 1.593-3.9 9.847-4.311 18.851-10.54 26.35-18.376 12.644-13.213 20.564-30.49 22.302-48.648 1.018-10.646-6.787-20.103-17.435-21.123z" fill="#eaaadd"/></g><g><path d="m494.476 124.806c-10.643-1.002-20.104 6.786-21.124 17.434-1.709 17.865-14.15 32.469-31.028 37.217-1.185.334-2.45-.07-3.216-1.035-29.238-36.852-74.409-60.487-125.106-60.487h-23.742c-1.038 0-2.011-.501-2.614-1.346l-24.7-34.607c-6.83-9.57-21.051-9.57-27.881 0l-5.572 7.807 13.338 19.744c3.43 5.077 8.981 8.373 15.093 8.795 71.556 4.933 130.132 57.02 144.887 125.416 1.441 6.68-.609 13.638-5.441 18.47l-169.091 169.092c-3.77 3.77-8.883 5.888-14.215 5.888h67.218c2.38 0 4.717-.422 6.91-1.225l84.558-100.845 97.102-82.109c.768-2.967.858-6.113.194-9.201-2.005-9.316-4.827-18.328-8.38-26.961-.622-1.512.095-3.245 1.593-3.9 9.847-4.311 18.851-10.54 26.35-18.376 12.644-13.213 20.564-30.49 22.302-48.648 1.018-10.646-6.787-20.103-17.435-21.123z" fill="#e490d0"/></g><path d="m212.025 197.972c-3.427-2.365-8.124-1.502-10.485 1.926-2.226 3.228-5.889 5.155-9.798 5.155-3.213 0-6.246-1.318-8.465-3.574v-12.129c0-4.164-3.375-7.539-7.538-7.539-4.164 0-7.539 3.375-7.539 7.539v12.128c-2.22 2.257-5.253 3.576-8.466 3.576-3.909 0-7.571-1.928-9.798-5.156-2.364-3.427-7.057-4.29-10.486-1.925-3.427 2.364-4.289 7.058-1.925 10.486 5.041 7.309 13.344 11.672 22.209 11.672 5.838 0 11.425-1.902 16.005-5.281 4.579 3.379 10.165 5.281 16.004 5.281 8.867 0 17.169-4.364 22.209-11.673 2.363-3.428 1.501-8.123-1.927-10.486z" fill="#524798"/><g><path d="m288.184 435.948c2.719-.996 5.226-2.554 7.313-4.641l169.093-169.093c2.582-2.582 4.36-5.773 5.246-9.203-14.15-4.643-29.262-7.163-44.964-7.163-79.625 0-144.173 64.548-144.173 144.173-.002 16.06 2.638 31.5 7.485 45.927z" fill="#ecf4ff"/></g><g><path d="m435.527 246.244c-.146.154-.283.314-.433.464l-153.998 153.997c.9 12.235 3.326 24.045 7.087 35.243 2.719-.996 5.226-2.554 7.313-4.641l169.094-169.093c2.582-2.582 4.36-5.773 5.246-9.203-10.92-3.582-22.414-5.895-34.309-6.767z" fill="#ddeafb"/></g><g><circle cx="117.334" cy="175.722" fill="#524798" r="10.079"/></g><g><circle cx="234.143" cy="175.722" fill="#524798" r="10.079"/></g><g><path d="m341.921 219.574c-1.533 0-3.08-.466-4.417-1.435-8.138-5.895-18.01-9.494-28.549-10.407-10.544-.913-20.884.937-29.915 5.347-3.742 1.83-8.255.273-10.081-3.467-1.827-3.741-.275-8.255 3.467-10.081 11.487-5.609 24.571-7.969 37.829-6.819 13.262 1.147 25.744 5.718 36.095 13.218 3.372 2.442 4.125 7.156 1.681 10.527-1.474 2.035-3.776 3.117-6.11 3.117z" fill="#524798"/></g><g><path d="m278.115 186.387c-2.272 0-4.518-1.023-6.001-2.968-2.524-3.312-1.886-8.042 1.425-10.566 9.955-7.588 22.22-12.228 35.469-13.421 13.162-1.184 26.352 1.12 38.138 6.669 3.767 1.773 5.383 6.264 3.61 10.031-1.775 3.766-6.267 5.38-10.032 3.61-9.365-4.409-19.865-6.237-30.365-5.294-10.416.937-19.988 4.532-27.68 10.396-1.365 1.04-2.971 1.543-4.564 1.543z" fill="#524798"/></g><g><path d="m9.555 219.574c-2.334 0-4.636-1.082-6.111-3.117-2.442-3.372-1.688-8.085 1.682-10.528 10.353-7.499 22.834-12.069 36.096-13.217 13.258-1.15 26.341 1.209 37.828 6.819 3.742 1.826 5.294 6.34 3.467 10.081-1.826 3.742-6.342 5.295-10.081 3.467-9.032-4.408-19.376-6.256-29.915-5.347-10.539.913-20.412 4.511-28.55 10.408-1.336.968-2.883 1.434-4.416 1.434z" fill="#524798"/></g><g><path d="m73.362 186.387c-1.593 0-3.199-.503-4.563-1.543-7.694-5.864-17.266-9.458-27.68-10.396-10.506-.943-21.002.884-30.367 5.294-3.765 1.771-8.259.158-10.032-3.61-1.773-3.767-.157-8.258 3.61-10.032 11.787-5.548 24.974-7.858 38.14-6.668 13.247 1.193 25.512 5.834 35.467 13.421 3.312 2.524 3.95 7.254 1.426 10.565-1.483 1.946-3.729 2.969-6.001 2.969z" fill="#524798"/></g><g fill="#eaaadd"><path d="m311.434 409.226c-3.82 0-7.095-2.893-7.49-6.775-.418-4.1-.63-8.282-.63-12.43 0-1.209.018-2.415.053-3.615.125-4.161 3.638-7.428 7.758-7.313 4.162.124 7.435 3.597 7.313 7.758-.031 1.053-.047 2.109-.047 3.17 0 3.64.186 7.307.552 10.9.423 4.142-2.593 7.842-6.735 8.264-.261.027-.519.041-.774.041zm5.866-49.49c-.832 0-1.678-.138-2.507-.431-3.926-1.385-5.987-5.69-4.603-9.616 1.775-5.034 3.908-9.999 6.338-14.761 1.891-3.707 6.431-5.18 10.142-3.286 3.708 1.892 5.18 6.433 3.286 10.142-2.127 4.168-3.994 8.514-5.547 12.919-1.092 3.096-4.001 5.033-7.109 5.033zm26.462-42.235c-1.913 0-3.827-.723-5.296-2.173-2.963-2.925-2.994-7.699-.07-10.661 3.751-3.8 7.788-7.386 12.001-10.661 3.286-2.554 8.023-1.962 10.578 1.326 2.555 3.287 1.961 8.023-1.326 10.578-3.694 2.871-7.234 6.016-10.522 9.348-1.475 1.494-3.42 2.243-5.365 2.243zm41.893-27.009c-3.071 0-5.956-1.891-7.077-4.94-1.436-3.908.568-8.24 4.476-9.676 5.02-1.844 10.21-3.367 15.428-4.526 4.062-.904 8.09 1.661 8.993 5.725s-1.66 8.09-5.725 8.993c-4.564 1.014-9.105 2.347-13.497 3.961-.856.314-1.735.463-2.598.463z"/><path d="m451.615 271.42c-5.205-1.17-10.545-2.002-15.872-2.476-4.135-.357-7.807 2.695-8.176 6.843-.368 4.147 2.695 7.807 6.843 8.176 2.501.222 5.003.542 7.489.941l12.335-12.335c-.77-.532-1.65-.931-2.619-1.149z"/></g></g></svg>